<mxfile host="app.diagrams.net" modified="2023-03-28T14:48:00.815Z" agent="Mozilla/5.0 (Windows NT 10.0; Win64; x64) AppleWebKit/537.36 (KHTML, like Gecko) Chrome/111.0.0.0 Safari/537.36" etag="y5KaA4pPsEwKNPRjrBii" version="21.1.1" type="device">
  <diagram id="pygfT3u5NUwtUzpT6nLH" name="Страница 1">
    <mxGraphModel dx="1235" dy="646" grid="1" gridSize="10" guides="1" tooltips="1" connect="1" arrows="1" fold="1" page="1" pageScale="1" pageWidth="827" pageHeight="1169" math="0" shadow="0">
      <root>
        <mxCell id="0" />
        <mxCell id="1" parent="0" />
        <mxCell id="7awePbtiz8HvHDE2oNdT-27" value="" style="rounded=0;whiteSpace=wrap;html=1;rotation=90;fillColor=none;dashed=1;" parent="1" vertex="1">
          <mxGeometry x="436.83" y="510.53" width="438.1" height="230.87" as="geometry" />
        </mxCell>
        <mxCell id="7awePbtiz8HvHDE2oNdT-33" value="" style="rounded=0;whiteSpace=wrap;html=1;rotation=90;fillColor=none;dashed=1;" parent="1" vertex="1">
          <mxGeometry x="541.17" y="515.24" width="230.86" height="207.69" as="geometry" />
        </mxCell>
        <mxCell id="7awePbtiz8HvHDE2oNdT-13" value="&lt;font style=&quot;vertical-align: inherit;&quot;&gt;&lt;font style=&quot;vertical-align: inherit;&quot;&gt;Пользователь &lt;/font&gt;&lt;/font&gt;&lt;br&gt;&lt;font style=&quot;vertical-align: inherit;&quot;&gt;&lt;font style=&quot;vertical-align: inherit;&quot;&gt;с 3 уровнем доступа&lt;/font&gt;&lt;/font&gt;" style="shape=umlActor;verticalLabelPosition=bottom;verticalAlign=top;html=1;outlineConnect=0;" parent="1" vertex="1">
          <mxGeometry x="400.65" y="615.89" width="50" height="90" as="geometry" />
        </mxCell>
        <mxCell id="7awePbtiz8HvHDE2oNdT-14" value="&lt;font style=&quot;vertical-align: inherit;&quot;&gt;&lt;font style=&quot;vertical-align: inherit;&quot;&gt;отфильтровывать поиск по функциям&lt;/font&gt;&lt;/font&gt;" style="ellipse;whiteSpace=wrap;html=1;" parent="1" vertex="1">
          <mxGeometry x="560" y="510" width="120" height="70" as="geometry" />
        </mxCell>
        <mxCell id="7awePbtiz8HvHDE2oNdT-15" value="&lt;font style=&quot;vertical-align: inherit;&quot;&gt;&lt;font style=&quot;vertical-align: inherit;&quot;&gt;&lt;font style=&quot;vertical-align: inherit;&quot;&gt;&lt;font style=&quot;vertical-align: inherit;&quot;&gt;отфильтровать (конкретизировать) поиск по названию прибора&lt;/font&gt;&lt;/font&gt;&lt;/font&gt;&lt;/font&gt;" style="ellipse;whiteSpace=wrap;html=1;" parent="1" vertex="1">
          <mxGeometry x="560" y="584.09" width="120" height="70" as="geometry" />
        </mxCell>
        <mxCell id="7awePbtiz8HvHDE2oNdT-16" value="&lt;font style=&quot;vertical-align: inherit;&quot;&gt;&lt;font style=&quot;vertical-align: inherit;&quot;&gt;получить информацию о приборе&lt;/font&gt;&lt;/font&gt;" style="ellipse;whiteSpace=wrap;html=1;" parent="1" vertex="1">
          <mxGeometry x="560" y="739.13" width="120" height="70" as="geometry" />
        </mxCell>
        <mxCell id="7awePbtiz8HvHDE2oNdT-20" value="&lt;font style=&quot;vertical-align: inherit;&quot;&gt;&lt;font style=&quot;vertical-align: inherit;&quot;&gt;выбрать раздел приборы&lt;/font&gt;&lt;/font&gt;" style="ellipse;whiteSpace=wrap;html=1;" parent="1" vertex="1">
          <mxGeometry x="560" y="420" width="120" height="70" as="geometry" />
        </mxCell>
        <mxCell id="7awePbtiz8HvHDE2oNdT-28" value="&lt;font style=&quot;vertical-align: inherit;&quot;&gt;&lt;font style=&quot;vertical-align: inherit;&quot;&gt;работа с приборами&lt;/font&gt;&lt;/font&gt;" style="text;html=1;strokeColor=none;fillColor=none;align=center;verticalAlign=middle;whiteSpace=wrap;rounded=0;dashed=1;" parent="1" vertex="1">
          <mxGeometry x="680" y="810" width="90" height="30" as="geometry" />
        </mxCell>
        <mxCell id="7awePbtiz8HvHDE2oNdT-32" value="отфильтровать поиск по названию организации" style="ellipse;whiteSpace=wrap;html=1;" parent="1" vertex="1">
          <mxGeometry x="560" y="660" width="120" height="70" as="geometry" />
        </mxCell>
        <mxCell id="7awePbtiz8HvHDE2oNdT-34" value="комплексный &lt;br&gt;поиск" style="text;html=1;align=center;verticalAlign=middle;resizable=0;points=[];autosize=1;strokeColor=none;fillColor=none;" parent="1" vertex="1">
          <mxGeometry x="670" y="690" width="100" height="40" as="geometry" />
        </mxCell>
        <mxCell id="7awePbtiz8HvHDE2oNdT-46" value="" style="endArrow=classic;html=1;rounded=0;entryX=0;entryY=0.5;entryDx=0;entryDy=0;" parent="1" target="7awePbtiz8HvHDE2oNdT-20" edge="1">
          <mxGeometry width="50" height="50" relative="1" as="geometry">
            <mxPoint x="460" y="670" as="sourcePoint" />
            <mxPoint x="590" y="560" as="targetPoint" />
          </mxGeometry>
        </mxCell>
        <mxCell id="7awePbtiz8HvHDE2oNdT-47" value="" style="endArrow=classic;html=1;rounded=0;entryX=0;entryY=0.5;entryDx=0;entryDy=0;" parent="1" target="7awePbtiz8HvHDE2oNdT-14" edge="1">
          <mxGeometry width="50" height="50" relative="1" as="geometry">
            <mxPoint x="460" y="670" as="sourcePoint" />
            <mxPoint x="590" y="560" as="targetPoint" />
          </mxGeometry>
        </mxCell>
        <mxCell id="7awePbtiz8HvHDE2oNdT-48" value="" style="endArrow=classic;html=1;rounded=0;entryX=0;entryY=0.5;entryDx=0;entryDy=0;" parent="1" target="7awePbtiz8HvHDE2oNdT-15" edge="1">
          <mxGeometry width="50" height="50" relative="1" as="geometry">
            <mxPoint x="460" y="670" as="sourcePoint" />
            <mxPoint x="590" y="560" as="targetPoint" />
          </mxGeometry>
        </mxCell>
        <mxCell id="7awePbtiz8HvHDE2oNdT-49" value="" style="endArrow=classic;html=1;rounded=0;entryX=0;entryY=0.5;entryDx=0;entryDy=0;" parent="1" target="7awePbtiz8HvHDE2oNdT-32" edge="1">
          <mxGeometry width="50" height="50" relative="1" as="geometry">
            <mxPoint x="460" y="670" as="sourcePoint" />
            <mxPoint x="590" y="560" as="targetPoint" />
          </mxGeometry>
        </mxCell>
        <mxCell id="7awePbtiz8HvHDE2oNdT-50" value="" style="endArrow=classic;html=1;rounded=0;entryX=0;entryY=0.5;entryDx=0;entryDy=0;" parent="1" target="7awePbtiz8HvHDE2oNdT-16" edge="1">
          <mxGeometry width="50" height="50" relative="1" as="geometry">
            <mxPoint x="460" y="670" as="sourcePoint" />
            <mxPoint x="590" y="560" as="targetPoint" />
          </mxGeometry>
        </mxCell>
      </root>
    </mxGraphModel>
  </diagram>
</mxfile>
